<?xml version="1.0" encoding="utf-8"?>
<svg width="56" height="56" viewBox="0 0 56 56" fill="none" xmlns="http://www.w3.org/2000/svg">
<g clip-path="url(#clip0)">
<path d="M9.58901 45.5894C9.37202 45.5894 9.16051 45.677 9.00818 45.8305C8.85476 45.9828 8.76709 46.1954 8.76709 46.4113C8.76709 46.6272 8.85476 46.8398 9.00818 46.9921C9.16051 47.1455 9.37202 47.2332 9.58901 47.2332C9.8049 47.2332 10.0175 47.1455 10.1698 46.9921C10.3233 46.8398 10.4109 46.6272 10.4109 46.4113C10.4109 46.1954 10.3233 45.9828 10.1698 45.8305C10.0175 45.677 9.8049 45.5894 9.58901 45.5894Z" fill="#2A7AC0"/>
<path d="M54.5973 37.0631L48.2004 43.46C47.6783 43.1424 47.0658 42.9593 46.4113 42.9593C45.7279 42.9593 45.0908 43.1598 44.5541 43.5038C44.5145 43.393 44.4511 43.2888 44.3625 43.2002L35.5954 34.4331C35.5549 34.3926 35.5113 34.3573 35.4654 34.3271L36.048 24.4238C36.2034 24.3937 36.3517 24.3184 36.4721 24.1981L47.8693 12.8009C47.9119 12.7582 47.9485 12.7119 47.9798 12.6631C48.0547 12.6247 48.1287 12.5844 48.2004 12.5408L54.5973 18.9377C54.7577 19.0982 54.9681 19.1785 55.1784 19.1785C55.3887 19.1785 55.5992 19.0983 55.7596 18.9377C56.0806 18.6168 56.0806 18.0964 55.7596 17.7754L49.3627 11.3785C49.6804 10.8564 49.8634 10.2439 49.8634 9.58948C49.8634 7.68604 48.3148 6.13744 46.4113 6.13744C45.7569 6.13744 45.1444 6.32056 44.6223 6.63815L38.2255 0.241228C37.9045 -0.0797581 37.3841 -0.0797581 37.0632 0.241228C36.7422 0.562213 36.7422 1.08254 37.0632 1.40353L43.4601 7.80045C43.1424 8.32253 42.9593 8.93502 42.9593 9.58948C42.9593 9.73502 42.9694 9.87814 42.9869 10.019L34.7565 15.7803C34.5315 15.4628 34.284 15.1575 34.0115 14.8684C32.4343 13.1956 30.2995 12.2744 28.0004 12.2744C25.7013 12.2744 23.5666 13.1956 21.9894 14.8684C21.7168 15.1575 21.4694 15.4627 21.2444 15.7803L13.0139 10.019C13.0315 9.87814 13.0415 9.73502 13.0415 9.58948C13.0415 8.93502 12.8584 8.32253 12.5408 7.80045L18.9377 1.40353C19.2587 1.08254 19.2587 0.562213 18.9377 0.241228C18.6168 -0.0797581 18.0963 -0.0797581 17.7754 0.241228L11.3785 6.63815C10.8564 6.32056 10.2439 6.13744 9.58949 6.13744C7.68604 6.13744 6.13744 7.68604 6.13744 9.58948C6.13744 10.2439 6.32056 10.8564 6.63815 11.3785L0.241228 17.7754C-0.0797582 18.0964 -0.0797582 18.6168 0.241228 18.9377C0.401666 19.0983 0.612076 19.1785 0.822377 19.1785C1.03268 19.1785 1.24309 19.0983 1.40353 18.9377L7.80045 12.5408C7.87212 12.5844 7.94609 12.6247 8.02105 12.6631C8.05239 12.7119 8.08888 12.7582 8.13151 12.8009L19.5288 24.1981C19.6491 24.3184 19.7975 24.3937 19.9529 24.4238L20.5354 34.3271C20.4895 34.3573 20.4459 34.3926 20.4055 34.4331L11.6384 43.2002C11.5496 43.2889 11.4864 43.3931 11.4467 43.5038C10.91 43.1598 10.273 42.9593 9.58949 42.9593C8.93502 42.9593 8.32253 43.1424 7.80045 43.46L1.40353 37.0631C1.08254 36.7421 0.562104 36.7421 0.241228 37.0631C-0.0797582 37.3841 -0.0797582 37.9045 0.241228 38.2254L6.63815 44.6223C6.32056 45.1444 6.13744 45.7569 6.13744 46.4113C6.13744 48.3148 7.68604 49.8634 9.58949 49.8634C10.2439 49.8634 10.8564 49.6804 11.3785 49.3628L17.7754 55.7597C17.9359 55.9202 18.1463 56.0005 18.3566 56.0005C18.5669 56.0005 18.7773 55.9202 18.9377 55.7597C19.2587 55.4387 19.2587 54.9183 18.9377 54.5974L12.7052 48.3648L22.7271 42.9684C23.4244 43.4466 24.2665 43.7264 25.1701 43.7264H30.8308C31.7343 43.7264 32.5764 43.4466 33.2737 42.9684L43.2956 48.3648L37.0631 54.5974C36.7421 54.9184 36.7421 55.4388 37.0631 55.7597C37.2235 55.9202 37.4339 56.0005 37.6442 56.0005C37.8545 56.0005 38.0649 55.9202 38.2254 55.7597L44.6223 49.3628C45.1444 49.6804 45.7569 49.8634 46.4113 49.8634C48.3148 49.8634 49.8634 48.3148 49.8634 46.4113C49.8634 45.7569 49.6803 45.1444 49.3627 44.6224L55.7596 38.2255C56.0806 37.9045 56.0806 37.3841 55.7596 37.0632C55.4387 36.7422 54.9183 36.7422 54.5973 37.0631ZM43.2001 44.3625C43.2888 44.4512 43.393 44.5145 43.5038 44.5541C43.1756 45.0662 42.979 45.67 42.9617 46.318L34.4668 41.7438C34.8603 41.1357 35.1068 40.4222 35.1522 39.652L35.3376 36.5L43.2001 44.3625ZM46.4113 7.78127C47.4084 7.78127 48.2196 8.59245 48.2196 9.58948C48.2196 10.5866 47.4084 11.3977 46.4113 11.3977C45.4143 11.3977 44.6031 10.5866 44.6031 9.58948C44.6031 8.59245 45.4143 7.78127 46.4113 7.78127ZM43.6036 11.5939C44.0482 12.2149 44.6929 12.6827 45.4431 12.9024L36.1809 22.1646L36.2482 21.0214C36.3265 19.6896 36.0899 18.3957 35.5711 17.2167L43.6036 11.5939ZM23.1854 15.9962C23.3409 15.8312 23.5033 15.6756 23.6718 15.5292V17.4797C23.6718 17.9336 24.0398 18.3016 24.4937 18.3016C24.9476 18.3016 25.3156 17.9336 25.3156 17.4797V14.8497C25.3156 14.7307 25.2897 14.6179 25.2443 14.5157C26.0958 14.1254 27.0293 13.9182 28.0004 13.9182C28.9715 13.9182 29.9051 14.1254 30.7567 14.5157C30.7111 14.6179 30.6853 14.7307 30.6853 14.8497V17.4797C30.6853 17.9336 31.0533 18.3016 31.5073 18.3016C31.9612 18.3016 32.3292 17.9336 32.3292 17.4797V15.5292C32.4976 15.6756 32.66 15.8312 32.8155 15.9962C34.079 17.3361 34.7151 19.0865 34.607 20.9249L33.5111 39.5553C33.4602 40.4202 33.0014 41.1702 32.3292 41.6238V20.9867C32.3292 20.5328 31.9612 20.1648 31.5073 20.1648C31.0533 20.1648 30.6853 20.5328 30.6853 20.9867V42.0278C30.6853 42.0463 30.6869 42.0644 30.6881 42.0826H25.3127C25.314 42.0644 25.3155 42.0463 25.3155 42.0278V20.9867C25.3155 20.5328 24.9475 20.1648 24.4936 20.1648C24.0397 20.1648 23.6717 20.5328 23.6717 20.9867V41.6238C22.9994 41.1702 22.5407 40.4202 22.4897 39.5553L21.3938 20.9249C21.2857 19.0865 21.922 17.3361 23.1854 15.9962ZM9.58949 7.78127C10.5865 7.78127 11.3977 8.59245 11.3977 9.58948C11.3977 10.5866 10.5865 11.3977 9.58949 11.3977C8.59245 11.3977 7.78127 10.5866 7.78127 9.58948C7.78127 8.59245 8.59245 7.78127 9.58949 7.78127ZM10.5578 12.9024C11.3081 12.6827 11.9528 12.2149 12.3974 11.5939L20.4299 17.2167C19.9111 18.3957 19.6745 19.6896 19.7529 21.0214L19.8202 22.1646L10.5578 12.9024ZM20.6634 36.4999L20.8489 39.6519C20.8942 40.4221 21.1406 41.1357 21.5341 41.7437L13.0392 46.3179C13.0219 45.6699 12.8253 45.0661 12.4971 44.554C12.6079 44.5144 12.7121 44.4511 12.8009 44.3624L20.6634 36.4999ZM9.58949 48.2196C8.59245 48.2196 7.78127 47.4085 7.78127 46.4113C7.78127 45.4143 8.59245 44.6031 9.58949 44.6031C10.5865 44.6031 11.3977 45.4143 11.3977 46.4113C11.3977 47.4085 10.5865 48.2196 9.58949 48.2196ZM46.4113 48.2196C45.4143 48.2196 44.6031 47.4085 44.6031 46.4113C44.6031 45.4143 45.4143 44.6031 46.4113 44.6031C47.4084 44.6031 48.2196 45.4143 48.2196 46.4113C48.2196 47.4085 47.4084 48.2196 46.4113 48.2196Z" fill="#2A7AC0"/>
<path d="M46.4113 45.5894C46.1954 45.5894 45.9828 45.677 45.8305 45.8305C45.677 45.9828 45.5894 46.1954 45.5894 46.4113C45.5894 46.6272 45.677 46.8398 45.8305 46.9921C45.9828 47.1455 46.1954 47.2332 46.4113 47.2332C46.6272 47.2332 46.8398 47.1455 46.9921 46.9921C47.1455 46.8398 47.2332 46.6272 47.2332 46.4113C47.2332 46.1954 47.1455 45.9828 46.9921 45.8305C46.8398 45.677 46.6272 45.5894 46.4113 45.5894Z" fill="#2A7AC0"/>
<path d="M46.4113 10.4109C46.6272 10.4109 46.8398 10.3233 46.9921 10.1698C47.1455 10.0175 47.2332 9.8049 47.2332 9.58901C47.2332 9.37312 47.1455 9.16051 46.9921 9.00818C46.8398 8.85476 46.6272 8.76709 46.4113 8.76709C46.1954 8.76709 45.9828 8.85476 45.8305 9.00818C45.677 9.16051 45.5894 9.37312 45.5894 9.58901C45.5894 9.8049 45.677 10.0175 45.8305 10.1698C45.9828 10.3233 46.1954 10.4109 46.4113 10.4109Z" fill="#2A7AC0"/>
<path d="M9.58901 10.4109C9.8049 10.4109 10.0175 10.3233 10.1698 10.1698C10.3233 10.0175 10.4109 9.8049 10.4109 9.58901C10.4109 9.37312 10.3233 9.16051 10.1698 9.00818C10.0175 8.85476 9.8049 8.76709 9.58901 8.76709C9.37202 8.76709 9.16051 8.85476 9.00818 9.00818C8.85476 9.16051 8.76709 9.37312 8.76709 9.58901C8.76709 9.8049 8.85476 10.0175 9.00818 10.1698C9.16051 10.3233 9.37202 10.4109 9.58901 10.4109Z" fill="#2A7AC0"/>
<path d="M28.0001 40.2193C28.4541 40.2193 28.8221 39.8514 28.8221 39.3974V36.7672C28.8221 36.3133 28.4541 35.9453 28.0001 35.9453C27.5462 35.9453 27.1782 36.3133 27.1782 36.7672V39.3974C27.1782 39.8514 27.5462 40.2193 28.0001 40.2193Z" fill="#2A7AC0"/>
</g>
<defs>
<clipPath id="clip0">
<rect width="56" height="56" fill="white"/>
</clipPath>
</defs>
</svg>
