<?xml version="1.0" encoding="utf-8"?>
<svg width="56" height="56" viewBox="0 0 56 56" fill="none" xmlns="http://www.w3.org/2000/svg">
<path d="M52.4722 38.4893H52.4818C52.9648 38.4893 53.3516 38.8804 53.3516 39.3643C53.3516 39.8481 52.9561 40.2393 52.4722 40.2393C51.9892 40.2393 51.5972 39.8481 51.5972 39.3643C51.5972 38.8804 51.9892 38.4893 52.4722 38.4893Z" fill="#2A7AC0"/>
<path d="M52.4985 37.6143C52.0147 37.6143 51.6235 37.2231 51.6235 36.7393V34.1143C51.6235 33.6304 52.0147 33.2393 52.4985 33.2393C52.9824 33.2393 53.3735 33.6304 53.3735 34.1143V36.7393C53.3735 37.2231 52.9824 37.6143 52.4985 37.6143Z" fill="#2A7AC0"/>
<path d="M55.9959 26.2289C55.9959 26.2324 55.9985 26.2359 55.9985 26.2402V50.7402C55.9985 53.6356 53.6439 55.9902 50.7485 55.9902H6.12703C2.75041 55.9902 0.00203323 53.2419 0.00203323 49.8652V46.3652V30.6152V27.1152C0.00203323 23.7386 2.75041 20.9902 6.12703 20.9902H8.75028H49.8735H50.7468C53.6387 20.9894 55.9898 23.3387 55.9959 26.2289ZM6.12703 54.2394H50.7485C52.5274 54.2394 53.9834 52.9024 54.2039 51.1821C53.279 51.9932 52.0715 52.4894 50.7485 52.4894H49.8735H8.75028H6.12703C4.45928 52.4894 2.94553 51.8165 1.83953 50.7306C2.24291 52.73 4.01128 54.2394 6.12703 54.2394ZM1.75203 27.1144V30.6144V46.3644C1.75203 48.7767 3.71466 50.7394 6.12703 50.7394H7.87354V36.7394V22.7394H6.12703C3.71466 22.7394 1.75203 24.702 1.75203 27.1144ZM9.62528 50.7394H48.9968V22.7394H9.62528V50.7394ZM50.7485 22.7394V50.7394C52.6788 50.7394 54.2485 49.1696 54.2485 47.2394V26.2481C54.2485 26.2446 54.2468 26.2429 54.2468 26.2394C54.2468 24.31 52.6779 22.7402 50.7485 22.7394Z" fill="#2A7AC0"/>
<path d="M5.24854 39.3643C3.80129 39.3643 2.62354 38.1865 2.62354 36.7393C2.62354 35.292 3.80129 34.1143 5.24854 34.1143C6.69579 34.1143 7.87354 35.292 7.87354 36.7393C7.87354 38.1865 6.69579 39.3643 5.24854 39.3643ZM5.24854 35.8643C4.76554 35.8643 4.37354 36.2563 4.37354 36.7393C4.37354 37.2223 4.76554 37.6143 5.24854 37.6143C5.73154 37.6143 6.12354 37.2223 6.12354 36.7393C6.12354 36.2563 5.73154 35.8643 5.24854 35.8643Z" fill="#2A7AC0"/>
<path d="M23.625 47.234H20.125C19.6411 47.234 19.25 46.8429 19.25 46.359V42.8643C19.25 42.3804 19.6411 41.9893 20.125 41.9893C20.6089 41.9893 21 42.3804 21 42.8643V45.484H23.625C24.1089 45.484 24.5 45.8751 24.5 46.359C24.5 46.8429 24.1089 47.234 23.625 47.234Z" fill="#2A7AC0"/>
<path d="M23.625 27.9893H21V30.6142C21 31.0981 20.6089 31.4892 20.125 31.4892C19.6411 31.4892 19.25 31.0981 19.25 30.6142V27.1143C19.25 26.6304 19.6411 26.2393 20.125 26.2393H23.625C24.1089 26.2393 24.5 26.6304 24.5 27.1143C24.5 27.5981 24.1089 27.9893 23.625 27.9893Z" fill="#2A7AC0"/>
<path d="M39.375 31.4892C38.8911 31.4892 38.5 31.0981 38.5 30.6142V27.9893H35.875C35.3911 27.9893 35 27.5981 35 27.1143C35 26.6304 35.3911 26.2393 35.875 26.2393H39.375C39.8589 26.2393 40.25 26.6304 40.25 27.1143V30.6142C40.25 31.0981 39.8589 31.4892 39.375 31.4892Z" fill="#2A7AC0"/>
<path d="M39.375 47.234H35.875C35.3911 47.234 35 46.8429 35 46.359C35 45.8751 35.3911 45.484 35.875 45.484H38.5V42.8643C38.5 42.3804 38.8911 41.9893 39.375 41.9893C39.8589 41.9893 40.25 42.3804 40.25 42.8643V46.359C40.25 46.8429 39.8589 47.234 39.375 47.234Z" fill="#2A7AC0"/>
<path d="M32.375 37.6143H30.625V39.3643C30.625 39.8481 30.2339 40.2393 29.75 40.2393C29.2661 40.2393 28.875 39.8481 28.875 39.3643V37.6143H27.125C26.6411 37.6143 26.25 37.2231 26.25 36.7393C26.25 36.2554 26.6411 35.8643 27.125 35.8643H28.875V34.1143C28.875 33.6304 29.2661 33.2393 29.75 33.2393C30.2339 33.2393 30.625 33.6304 30.625 34.1143V35.8643H32.375C32.8589 35.8643 33.25 36.2554 33.25 36.7393C33.25 37.2231 32.8589 37.6143 32.375 37.6143Z" fill="#2A7AC0"/>
<path d="M14 41.1125C12.5528 41.1125 11.375 39.9348 11.375 38.4875V34.9893C11.375 33.542 12.5528 32.3643 14 32.3643C15.4473 32.3643 16.625 33.542 16.625 34.9893V38.4875C16.625 39.9356 15.4473 41.1125 14 41.1125ZM14 39.3625C14.483 39.3625 14.875 38.9705 14.875 38.4875V37.4524C14.6003 37.5504 14.3089 37.6143 14 37.6143C13.6911 37.6143 13.3997 37.5513 13.125 37.4524V38.4875C13.125 38.9705 13.517 39.3625 14 39.3625ZM14 34.1143C13.517 34.1143 13.125 34.5063 13.125 34.9893C13.125 35.4723 13.517 35.8643 14 35.8643C14.483 35.8643 14.875 35.4723 14.875 34.9893C14.875 34.5063 14.483 34.1143 14 34.1143Z" fill="#2A7AC0"/>
<path d="M44.625 41.1125C43.1778 41.1125 42 39.9348 42 38.4875V34.9893C42 33.542 43.1778 32.3643 44.625 32.3643C46.0723 32.3643 47.25 33.542 47.25 34.9893V38.4875C47.25 39.9356 46.0723 41.1125 44.625 41.1125ZM44.625 39.3625C45.108 39.3625 45.5 38.9705 45.5 38.4875V37.4524C45.2253 37.5504 44.9339 37.6143 44.625 37.6143C44.3161 37.6143 44.0247 37.5513 43.75 37.4524V38.4875C43.75 38.9705 44.142 39.3625 44.625 39.3625ZM44.625 34.1143C44.142 34.1143 43.75 34.5063 43.75 34.9893C43.75 35.4723 44.142 35.8643 44.625 35.8643C45.108 35.8643 45.5 35.4723 45.5 34.9893C45.5 34.5063 45.108 34.1143 44.625 34.1143Z" fill="#2A7AC0"/>
<path d="M38.4968 2.63574C38.0129 2.63574 37.6218 2.24462 37.6218 1.76074C37.6218 1.27687 38.0129 0.885742 38.4968 0.885742H44.6235C44.6235 0.401867 45.0147 0.0107422 45.4985 0.0107422C45.9824 0.0107422 46.3735 0.401867 46.3735 0.885742H52.4985C52.9824 0.885742 53.3735 1.27687 53.3735 1.76074C53.3735 2.24462 52.9824 2.63574 52.4985 2.63574H46.3735V5.26249H48.1244C48.6083 5.26249 48.9994 5.65362 48.9994 6.13749V12.2625C48.9994 12.7464 48.6083 13.1375 48.1244 13.1375H42.8727C42.3888 13.1375 41.9977 12.7464 41.9977 12.2625V11.3875H37.6227V14.8875C37.6227 15.3714 37.2315 15.7625 36.7477 15.7625H35.8727V17.509C35.8727 17.9929 35.4815 18.384 34.9977 18.384H30.6227C30.1388 18.384 29.7477 17.9929 29.7477 17.509V15.7625H26.2529V17.509C26.2529 17.9929 25.8618 18.384 25.3779 18.384H21.0029C20.519 18.384 20.1279 17.9929 20.1279 17.509V15.7625H19.2529C18.769 15.7625 18.3779 15.3714 18.3779 14.8875V11.3875H14.0038V12.2625C14.0038 12.7464 13.6127 13.1375 13.1288 13.1375H7.87703C7.39316 13.1375 7.00203 12.7464 7.00203 12.2625V6.13749C7.00203 5.65362 7.39316 5.26249 7.87703 5.26249H9.62791V2.63574H3.50291C3.01903 2.63574 2.62791 2.24462 2.62791 1.76074C2.62791 1.27687 3.01903 0.885742 3.50291 0.885742H9.62791C9.62791 0.401867 10.019 0.0107422 10.5029 0.0107422C10.9868 0.0107422 11.3779 0.401867 11.3779 0.885742H17.5047C17.9885 0.885742 18.3797 1.27687 18.3797 1.76074C18.3797 2.24462 17.9885 2.63574 17.5047 2.63574H11.3779V5.26249H13.1288C13.6127 5.26249 14.0038 5.65362 14.0038 6.13749V7.01424H18.3779V7.01074C18.3779 4.59837 20.3405 2.63574 22.7529 2.63574H33.2477C35.66 2.63574 37.6227 4.59837 37.6227 7.01074V7.01424H41.9977V6.13749C41.9977 5.65362 42.3888 5.26249 42.8727 5.26249H44.6235V2.63574H38.4968ZM35.8727 14.0125V13.134H20.1279V14.0125H35.8727ZM31.4977 16.634H34.1227V15.7625H31.4977V16.634ZM21.8779 16.634H24.5029V15.7625H21.8779V16.634ZM12.2538 7.01249H8.75203V11.3875H12.2538V7.01249ZM14.0038 8.76424V9.63749H18.3779V8.76424H14.0038ZM31.4985 6.13749V4.38574H24.502V6.13749H31.4985ZM33.2485 4.38574V7.01249C33.2485 7.49637 32.8574 7.88749 32.3735 7.88749H23.627C23.1432 7.88749 22.752 7.49637 22.752 7.01249V4.38574C21.3048 4.38662 20.1279 5.56349 20.1279 7.01074V11.384H35.8727V7.01074C35.8727 5.56262 34.6958 4.38662 33.2485 4.38574ZM37.6227 8.76424V9.63749H41.9977V8.76424H37.6227ZM43.7477 11.3875H47.2494V7.01249H43.7477V11.3875Z" fill="#2A7AC0"/>
</svg>
