<?xml version="1.0" encoding="utf-8"?>
<svg width="56" height="56" viewBox="0 0 56 56" fill="none" xmlns="http://www.w3.org/2000/svg">
<path d="M26.25 44.625C26.25 45.4903 26.5066 46.3362 26.9873 47.0556C27.4681 47.7751 28.1513 48.3358 28.9508 48.667C29.7502 48.9981 30.6299 49.0848 31.4785 48.9159C32.3272 48.7471 33.1067 48.3305 33.7186 47.7186C34.3305 47.1067 34.7471 46.3272 34.9159 45.4785C35.0848 44.6299 34.9981 43.7502 34.667 42.9508C34.3358 42.1513 33.7751 41.4681 33.0556 40.9873C32.3362 40.5066 31.4903 40.25 30.625 40.25C29.4651 40.2514 28.3531 40.7128 27.5329 41.5329C26.7128 42.3531 26.2514 43.4651 26.25 44.625ZM33.25 44.625C33.25 45.1442 33.0961 45.6517 32.8076 46.0834C32.5192 46.5151 32.1092 46.8515 31.6295 47.0502C31.1499 47.2489 30.6221 47.3009 30.1129 47.1996C29.6037 47.0983 29.136 46.8483 28.7688 46.4812C28.4017 46.114 28.1517 45.6463 28.0504 45.1371C27.9492 44.6279 28.0011 44.1001 28.1998 43.6205C28.3985 43.1408 28.735 42.7308 29.1666 42.4424C29.5983 42.154 30.1058 42 30.625 42C31.3212 42 31.9889 42.2766 32.4812 42.7688C32.9734 43.2611 33.25 43.9288 33.25 44.625Z" fill="#2A7AC0"/>
<path d="M54.25 19.25V17.5H48.125V16.625H46.375V17.5H40.25V19.25H46.375V21H44.625C44.3929 21 44.1704 21.0922 44.0063 21.2563C43.8422 21.4204 43.75 21.6429 43.75 21.875V23.94L40.8975 23.6775L40.2062 21.595C40.146 21.4222 40.0337 21.2723 39.8849 21.1658C39.7361 21.0592 39.558 21.0013 39.375 21H26.25V6.125C26.2479 5.42945 25.9707 4.76297 25.4789 4.27114C24.987 3.77931 24.3206 3.50208 23.625 3.5H7.875C7.17945 3.50208 6.51297 3.77931 6.02114 4.27114C5.52931 4.76297 5.25208 5.42945 5.25 6.125V12.9588L1.93375 21.2362C1.81232 21.5457 1.74999 21.8751 1.75 22.2075V31.2112C1.7505 32.1578 2.05748 33.0787 2.625 33.8362L3.2025 34.6062C3.56283 35.0881 3.82022 35.6389 3.95871 36.2245C4.09719 36.81 4.1138 37.4178 4.0075 38.01L2.625 52.4125C2.61483 52.5344 2.62977 52.6571 2.6689 52.773C2.70803 52.8888 2.77052 52.9955 2.8525 53.0863C2.93431 53.1769 3.03418 53.2494 3.1457 53.2991C3.25721 53.3489 3.3779 53.3747 3.5 53.375H13.125C13.2471 53.3747 13.3678 53.3489 13.4793 53.2991C13.5908 53.2494 13.6907 53.1769 13.7725 53.0863C13.8545 52.994 13.9163 52.8857 13.954 52.7681C13.9917 52.6506 14.0044 52.5265 13.9913 52.4037L12.3638 37.2925C12.3226 37.0678 12.3696 36.8359 12.495 36.645L13.0112 35.875H23.625C23.9921 35.8738 24.3548 35.7952 24.6895 35.6445C25.0242 35.4937 25.3234 35.2741 25.5675 35H28V37.625H23.625C22.9294 37.6271 22.263 37.9043 21.7711 38.3961C21.2793 38.888 21.0021 39.5544 21 40.25V49C21.0021 49.6956 21.2793 50.362 21.7711 50.8539C22.263 51.3457 22.9294 51.6229 23.625 51.625H37.625C38.3206 51.6229 38.987 51.3457 39.4789 50.8539C39.9707 50.362 40.2479 49.6956 40.25 49V40.25C40.2479 39.5544 39.9707 38.888 39.4789 38.3961C38.987 37.9043 38.3206 37.6271 37.625 37.625H33.25V35H39.375C39.5704 34.9998 39.7602 34.9343 39.914 34.8138C40.0678 34.6932 40.1769 34.5247 40.2238 34.335L40.95 31.4388L43.75 31.185V31.5C43.75 32.4283 44.1188 33.3185 44.7751 33.9749C45.4315 34.6313 46.3217 35 47.25 35C48.1783 35 49.0685 34.6313 49.7249 33.9749C50.3812 33.3185 50.75 32.4283 50.75 31.5V21.875C50.75 21.6429 50.6578 21.4204 50.4937 21.2563C50.3296 21.0922 50.1071 21 49.875 21H48.125V19.25H54.25ZM10.7537 29.4963L11.2262 29.96C11.5512 30.2853 11.8088 30.6714 11.9845 31.0963C12.1601 31.5212 12.2504 31.9765 12.25 32.4362V32.8038C12.251 33.495 12.047 34.171 11.6637 34.7463L11.0425 35.6738C10.6681 36.2178 10.5206 36.8864 10.6312 37.5375L12.1538 51.625H4.4625L5.74 38.2375C5.87666 37.4208 5.84632 36.5849 5.65081 35.7803C5.4553 34.9757 5.09868 34.2191 4.6025 33.5562L4.025 32.7863C3.68523 32.3313 3.50113 31.779 3.5 31.2112V22.2075C3.49909 22.0966 3.5199 21.9866 3.56125 21.8838L5.25 17.6663V23.2663C5.25015 23.4958 5.29586 23.7231 5.38448 23.9349C5.4731 24.1466 5.60286 24.3387 5.76625 24.5L6.7725 25.515C7.0493 25.7886 7.40896 25.9628 7.79525 26.0102C8.18153 26.0577 8.57267 25.9759 8.9075 25.7775L11.6375 24.1325C11.7743 24.0536 11.9332 24.0221 12.0898 24.0427C12.2463 24.0633 12.3917 24.135 12.5033 24.2467C12.615 24.3583 12.6867 24.5037 12.7073 24.6602C12.7279 24.8168 12.6964 24.9757 12.6175 25.1125L10.6225 28.4288C10.5245 28.5965 10.4842 28.7918 10.5079 28.9847C10.5316 29.1775 10.618 29.3572 10.7537 29.4963ZM12.6 28.875C12.5562 28.8312 12.5212 28.7787 12.4775 28.735L14.1137 26.0138C14.3975 25.5431 14.5155 24.9909 14.4489 24.4454C14.3823 23.8998 14.1349 23.3923 13.7463 23.0037C13.3577 22.6151 12.8502 22.3677 12.3046 22.3011C11.7591 22.2345 11.2069 22.3525 10.7362 22.6363L10.5 22.7763V8.75H21V28.875H12.6ZM24.5 33.25C24.5 33.4821 24.4078 33.7046 24.2437 33.8687C24.0796 34.0328 23.8571 34.125 23.625 34.125H13.8162C13.9342 33.6944 13.996 33.2502 14 32.8038V32.4362C13.9992 31.8182 13.8896 31.2051 13.6763 30.625H21.875C22.1071 30.625 22.3296 30.5328 22.4937 30.3687C22.6578 30.2046 22.75 29.9821 22.75 29.75V7.875C22.75 7.64294 22.6578 7.42038 22.4937 7.25628C22.3296 7.09219 22.1071 7 21.875 7H9.625C9.39294 7 9.17038 7.09219 9.00628 7.25628C8.84219 7.42038 8.75 7.64294 8.75 7.875V23.8263L8.00625 24.2725L7 23.2663V6.125C7 5.89294 7.09219 5.67038 7.25628 5.50628C7.42038 5.34219 7.64294 5.25 7.875 5.25H23.625C23.8571 5.25 24.0796 5.34219 24.2437 5.50628C24.4078 5.67038 24.5 5.89294 24.5 6.125V33.25ZM37.625 39.375C37.8571 39.375 38.0796 39.4672 38.2437 39.6313C38.4078 39.7954 38.5 40.0179 38.5 40.25V49C38.5 49.2321 38.4078 49.4546 38.2437 49.6187C38.0796 49.7828 37.8571 49.875 37.625 49.875H23.625C23.3929 49.875 23.1704 49.7828 23.0063 49.6187C22.8422 49.4546 22.75 49.2321 22.75 49V40.25C22.75 40.0179 22.8422 39.7954 23.0063 39.6313C23.1704 39.4672 23.3929 39.375 23.625 39.375H37.625ZM29.75 37.625V35H31.5V37.625H29.75ZM43.75 29.435L40.1712 29.75C39.9896 29.7667 39.8177 29.8398 39.6797 29.9591C39.5416 30.0783 39.4443 30.2377 39.4012 30.415L38.6925 33.25H26.25V22.75H38.745L39.4188 24.78C39.4745 24.9405 39.575 25.0818 39.7083 25.1872C39.8416 25.2926 40.0022 25.3578 40.1712 25.375L43.75 25.69V29.435ZM49 22.75V31.5C49 31.9641 48.8156 32.4093 48.4874 32.7374C48.1592 33.0656 47.7141 33.25 47.25 33.25C46.7859 33.25 46.3408 33.0656 46.0126 32.7374C45.6844 32.4093 45.5 31.9641 45.5 31.5V22.75H49Z" fill="#2A7AC0"/>
<path d="M36.3877 12.7629C36.143 13.0076 35.9762 13.3194 35.9087 13.6589C35.8411 13.9984 35.8757 14.3503 36.0082 14.6701C36.1406 14.9899 36.3649 15.2632 36.6527 15.4555C36.9405 15.6478 37.2789 15.7505 37.625 15.7505C37.9711 15.7505 38.3095 15.6478 38.5973 15.4555C38.8851 15.2632 39.1094 14.9899 39.2418 14.6701C39.3743 14.3503 39.4089 13.9984 39.3413 13.6589C39.2738 13.3194 39.107 13.0076 38.8622 12.7629C38.5341 12.4348 38.089 12.2505 37.625 12.2505C37.161 12.2505 36.7159 12.4348 36.3877 12.7629Z" fill="#2A7AC0"/>
<path d="M41.3378 10.2885C40.8503 9.80089 40.2715 9.4141 39.6345 9.15021C38.9975 8.88631 38.3147 8.75049 37.6252 8.75049C36.9357 8.75049 36.2529 8.88631 35.6159 9.15021C34.9789 9.4141 34.4001 9.80089 33.9126 10.2885L35.1498 11.5257C35.817 10.8897 36.7034 10.5349 37.6252 10.5349C38.547 10.5349 39.4334 10.8897 40.1006 11.5257L41.3378 10.2885Z" fill="#2A7AC0"/>
<path d="M43.8122 7.81317C42.1701 6.17462 39.945 5.25439 37.6251 5.25439C35.3053 5.25439 33.0802 6.17462 31.438 7.81317L32.6752 9.05042C33.9891 7.73973 35.7692 7.00366 37.6251 7.00366C39.481 7.00366 41.2611 7.73973 42.575 9.05042L43.8122 7.81317Z" fill="#2A7AC0"/>
<path d="M37.6249 3.49991C39.0044 3.49599 40.3709 3.76582 41.6453 4.29376C42.9197 4.82171 44.0767 5.59727 45.0493 6.57553L46.2874 5.33741C45.1499 4.19976 43.7994 3.29732 42.3131 2.68162C40.8267 2.06592 39.2337 1.74902 37.6249 1.74902C36.0161 1.74902 34.4231 2.06592 32.9367 2.68162C31.4504 3.29732 30.0999 4.19976 28.9624 5.33741L30.1997 6.57466C31.1724 5.59645 32.3296 4.82098 33.6042 4.29319C34.8787 3.76539 36.2454 3.49576 37.6249 3.49991Z" fill="#2A7AC0"/>
<path d="M44.7749 36.5996L43.5376 37.8369C44.0251 38.3245 44.6039 38.7113 45.2409 38.9752C45.8779 39.239 46.5607 39.3749 47.2502 39.3749C47.9397 39.3749 48.6225 39.239 49.2595 38.9752C49.8965 38.7113 50.4753 38.3245 50.9629 37.8369L49.7256 36.5996C49.0584 37.2356 48.172 37.5904 47.2502 37.5904C46.3284 37.5904 45.442 37.2356 44.7749 36.5996Z" fill="#2A7AC0"/>
<path d="M44.7749 40.0996L43.5376 41.3369C44.0251 41.8245 44.6039 42.2113 45.2409 42.4752C45.8779 42.739 46.5607 42.8749 47.2502 42.8749C47.9397 42.8749 48.6225 42.739 49.2595 42.4752C49.8965 42.2113 50.4753 41.8245 50.9629 41.3369L49.7256 40.0996C49.0584 40.7356 48.172 41.0904 47.2502 41.0904C46.3284 41.0904 45.442 40.7356 44.7749 40.0996Z" fill="#2A7AC0"/>
<path d="M15.75 12.25C15.0578 12.25 14.3811 12.4553 13.8055 12.8399C13.2299 13.2244 12.7813 13.7711 12.5164 14.4106C12.2515 15.0501 12.1822 15.7539 12.3173 16.4328C12.4523 17.1117 12.7856 17.7354 13.2751 18.2249C13.7646 18.7144 14.3883 19.0477 15.0672 19.1827C15.7461 19.3178 16.4499 19.2485 17.0894 18.9836C17.7289 18.7187 18.2756 18.2701 18.6601 17.6945C19.0447 17.1189 19.25 16.4422 19.25 15.75C19.25 14.8217 18.8813 13.9315 18.2249 13.2751C17.5685 12.6187 16.6783 12.25 15.75 12.25ZM15.75 17.5C15.4039 17.5 15.0655 17.3974 14.7778 17.2051C14.49 17.0128 14.2657 16.7395 14.1332 16.4197C14.0008 16.0999 13.9661 15.7481 14.0336 15.4086C14.1012 15.0691 14.2678 14.7573 14.5126 14.5126C14.7573 14.2678 15.0691 14.1011 15.4086 14.0336C15.7481 13.9661 16.0999 14.0008 16.4197 14.1332C16.7395 14.2657 17.0128 14.49 17.2051 14.7778C17.3974 15.0655 17.5 15.4039 17.5 15.75C17.5 16.2141 17.3156 16.6592 16.9874 16.9874C16.6592 17.3156 16.2141 17.5 15.75 17.5Z" fill="#2A7AC0"/>
</svg>
